<mxfile host="app.diagrams.net" modified="2021-09-19T14:00:24.002Z" agent="5.0 (X11; Linux x86_64) AppleWebKit/537.36 (KHTML, like Gecko) Chrome/93.0.4577.82 Safari/537.36" etag="BI5pkUARZ0UCO7bbKdNg" version="15.2.9" type="github">
  <diagram id="kt8jQVnE5Qbf4tfM2i_1" name="Page-1">
    <mxGraphModel dx="1355" dy="745" grid="1" gridSize="10" guides="1" tooltips="1" connect="1" arrows="1" fold="1" page="1" pageScale="1" pageWidth="827" pageHeight="1169" math="0" shadow="0">
      <root>
        <mxCell id="0" />
        <mxCell id="1" parent="0" />
        <mxCell id="gQVnEwLQoKDcN8zsAV5Y-44" value="" style="rounded=1;whiteSpace=wrap;html=1;" vertex="1" parent="1">
          <mxGeometry x="549" width="270" height="410" as="geometry" />
        </mxCell>
        <mxCell id="gQVnEwLQoKDcN8zsAV5Y-42" value="" style="rounded=1;whiteSpace=wrap;html=1;" vertex="1" parent="1">
          <mxGeometry x="279" width="270" height="410" as="geometry" />
        </mxCell>
        <mxCell id="gQVnEwLQoKDcN8zsAV5Y-41" value="" style="rounded=1;whiteSpace=wrap;html=1;" vertex="1" parent="1">
          <mxGeometry x="10" width="270" height="410" as="geometry" />
        </mxCell>
        <mxCell id="gQVnEwLQoKDcN8zsAV5Y-2" value="" style="shape=cylinder3;whiteSpace=wrap;html=1;boundedLbl=1;backgroundOutline=1;size=15;" vertex="1" parent="1">
          <mxGeometry x="83" y="90" width="60" height="210" as="geometry" />
        </mxCell>
        <mxCell id="gQVnEwLQoKDcN8zsAV5Y-12" value="" style="shape=image;html=1;verticalAlign=top;verticalLabelPosition=bottom;labelBackgroundColor=#ffffff;imageAspect=0;aspect=fixed;image=https://cdn1.iconfinder.com/data/icons/feather-2/24/x-128.png" vertex="1" parent="1">
          <mxGeometry x="104" y="190" width="20" height="20" as="geometry" />
        </mxCell>
        <mxCell id="gQVnEwLQoKDcN8zsAV5Y-3" value="" style="shape=image;html=1;verticalAlign=top;verticalLabelPosition=bottom;labelBackgroundColor=#ffffff;imageAspect=0;aspect=fixed;image=https://cdn3.iconfinder.com/data/icons/construction-and-tools-set-1-1/66/2-128.png" vertex="1" parent="1">
          <mxGeometry x="10" y="20" width="128" height="128" as="geometry" />
        </mxCell>
        <mxCell id="gQVnEwLQoKDcN8zsAV5Y-4" value="" style="shape=image;html=1;verticalAlign=top;verticalLabelPosition=bottom;labelBackgroundColor=#ffffff;imageAspect=0;aspect=fixed;image=https://cdn1.iconfinder.com/data/icons/nuvola2/128x128/apps/kcmpci.png;rotation=-90;" vertex="1" parent="1">
          <mxGeometry x="177.5" y="170" width="62" height="62" as="geometry" />
        </mxCell>
        <mxCell id="gQVnEwLQoKDcN8zsAV5Y-7" value="" style="endArrow=none;dashed=1;html=1;dashPattern=1 3;strokeWidth=2;exitX=0.617;exitY=0.524;exitDx=0;exitDy=0;exitPerimeter=0;" edge="1" parent="1" source="gQVnEwLQoKDcN8zsAV5Y-2">
          <mxGeometry width="50" height="50" relative="1" as="geometry">
            <mxPoint x="340" y="380" as="sourcePoint" />
            <mxPoint x="210" y="200" as="targetPoint" />
          </mxGeometry>
        </mxCell>
        <mxCell id="gQVnEwLQoKDcN8zsAV5Y-9" value="&lt;b&gt;&lt;font style=&quot;font-size: 13px&quot;&gt;TI mmWave RADAR&lt;/font&gt;&lt;/b&gt;" style="text;html=1;strokeColor=none;fillColor=none;align=center;verticalAlign=middle;whiteSpace=wrap;rounded=0;" vertex="1" parent="1">
          <mxGeometry x="124" y="148" width="169" height="20" as="geometry" />
        </mxCell>
        <mxCell id="gQVnEwLQoKDcN8zsAV5Y-11" value="&lt;b&gt;&lt;font style=&quot;font-size: 13px&quot;&gt;Monopile&lt;/font&gt;&lt;/b&gt;" style="text;html=1;strokeColor=none;fillColor=none;align=center;verticalAlign=middle;whiteSpace=wrap;rounded=0;" vertex="1" parent="1">
          <mxGeometry x="68" y="310" width="90" height="20" as="geometry" />
        </mxCell>
        <mxCell id="gQVnEwLQoKDcN8zsAV5Y-21" value="" style="shape=cylinder3;whiteSpace=wrap;html=1;boundedLbl=1;backgroundOutline=1;size=15;" vertex="1" parent="1">
          <mxGeometry x="353" y="90" width="60" height="210" as="geometry" />
        </mxCell>
        <mxCell id="gQVnEwLQoKDcN8zsAV5Y-22" value="" style="shape=image;html=1;verticalAlign=top;verticalLabelPosition=bottom;labelBackgroundColor=#ffffff;imageAspect=0;aspect=fixed;image=https://cdn1.iconfinder.com/data/icons/feather-2/24/x-128.png" vertex="1" parent="1">
          <mxGeometry x="374" y="190" width="20" height="20" as="geometry" />
        </mxCell>
        <mxCell id="gQVnEwLQoKDcN8zsAV5Y-23" value="" style="shape=image;html=1;verticalAlign=top;verticalLabelPosition=bottom;labelBackgroundColor=#ffffff;imageAspect=0;aspect=fixed;image=https://cdn3.iconfinder.com/data/icons/construction-and-tools-set-1-1/66/2-128.png" vertex="1" parent="1">
          <mxGeometry x="280" y="20" width="128" height="128" as="geometry" />
        </mxCell>
        <mxCell id="gQVnEwLQoKDcN8zsAV5Y-24" value="" style="shape=image;html=1;verticalAlign=top;verticalLabelPosition=bottom;labelBackgroundColor=#ffffff;imageAspect=0;aspect=fixed;image=https://cdn1.iconfinder.com/data/icons/nuvola2/128x128/apps/kcmpci.png;rotation=-90;" vertex="1" parent="1">
          <mxGeometry x="447.5" y="170" width="62" height="62" as="geometry" />
        </mxCell>
        <mxCell id="gQVnEwLQoKDcN8zsAV5Y-25" value="" style="endArrow=none;dashed=1;html=1;dashPattern=1 3;strokeWidth=2;exitX=0.3;exitY=0.75;exitDx=0;exitDy=0;exitPerimeter=0;startArrow=none;" edge="1" parent="1">
          <mxGeometry width="50" height="50" relative="1" as="geometry">
            <mxPoint x="384" y="200" as="sourcePoint" />
            <mxPoint x="484" y="200" as="targetPoint" />
          </mxGeometry>
        </mxCell>
        <mxCell id="gQVnEwLQoKDcN8zsAV5Y-26" value="&lt;b&gt;&lt;font style=&quot;font-size: 13px&quot;&gt;TI mmWave RADAR&lt;/font&gt;&lt;/b&gt;" style="text;html=1;strokeColor=none;fillColor=none;align=center;verticalAlign=middle;whiteSpace=wrap;rounded=0;" vertex="1" parent="1">
          <mxGeometry x="394" y="148" width="169" height="20" as="geometry" />
        </mxCell>
        <mxCell id="gQVnEwLQoKDcN8zsAV5Y-27" value="&lt;b&gt;&lt;font style=&quot;font-size: 13px&quot;&gt;Monopile&lt;/font&gt;&lt;/b&gt;" style="text;html=1;strokeColor=none;fillColor=none;align=center;verticalAlign=middle;whiteSpace=wrap;rounded=0;" vertex="1" parent="1">
          <mxGeometry x="338" y="310" width="90" height="20" as="geometry" />
        </mxCell>
        <mxCell id="gQVnEwLQoKDcN8zsAV5Y-28" value="" style="shape=cylinder3;whiteSpace=wrap;html=1;boundedLbl=1;backgroundOutline=1;size=15;" vertex="1" parent="1">
          <mxGeometry x="636" y="90" width="60" height="210" as="geometry" />
        </mxCell>
        <mxCell id="gQVnEwLQoKDcN8zsAV5Y-29" value="" style="shape=image;html=1;verticalAlign=top;verticalLabelPosition=bottom;labelBackgroundColor=#ffffff;imageAspect=0;aspect=fixed;image=https://cdn1.iconfinder.com/data/icons/feather-2/24/x-128.png" vertex="1" parent="1">
          <mxGeometry x="657" y="190" width="20" height="20" as="geometry" />
        </mxCell>
        <mxCell id="gQVnEwLQoKDcN8zsAV5Y-30" value="" style="shape=image;html=1;verticalAlign=top;verticalLabelPosition=bottom;labelBackgroundColor=#ffffff;imageAspect=0;aspect=fixed;image=https://cdn3.iconfinder.com/data/icons/construction-and-tools-set-1-1/66/2-128.png" vertex="1" parent="1">
          <mxGeometry x="563" y="20" width="128" height="128" as="geometry" />
        </mxCell>
        <mxCell id="gQVnEwLQoKDcN8zsAV5Y-31" value="" style="shape=image;html=1;verticalAlign=top;verticalLabelPosition=bottom;labelBackgroundColor=#ffffff;imageAspect=0;aspect=fixed;image=https://cdn1.iconfinder.com/data/icons/nuvola2/128x128/apps/kcmpci.png;rotation=-90;" vertex="1" parent="1">
          <mxGeometry x="730.5" y="170" width="62" height="62" as="geometry" />
        </mxCell>
        <mxCell id="gQVnEwLQoKDcN8zsAV5Y-32" value="" style="endArrow=none;dashed=1;html=1;dashPattern=1 3;strokeWidth=2;exitX=0.617;exitY=0.524;exitDx=0;exitDy=0;exitPerimeter=0;" edge="1" parent="1" source="gQVnEwLQoKDcN8zsAV5Y-28">
          <mxGeometry width="50" height="50" relative="1" as="geometry">
            <mxPoint x="893" y="380" as="sourcePoint" />
            <mxPoint x="763" y="200" as="targetPoint" />
          </mxGeometry>
        </mxCell>
        <mxCell id="gQVnEwLQoKDcN8zsAV5Y-33" value="&lt;b&gt;&lt;font style=&quot;font-size: 13px&quot;&gt;TI mmWave RADAR&lt;/font&gt;&lt;/b&gt;" style="text;html=1;strokeColor=none;fillColor=none;align=center;verticalAlign=middle;whiteSpace=wrap;rounded=0;" vertex="1" parent="1">
          <mxGeometry x="674" y="148" width="169" height="20" as="geometry" />
        </mxCell>
        <mxCell id="gQVnEwLQoKDcN8zsAV5Y-34" value="&lt;b&gt;&lt;font style=&quot;font-size: 13px&quot;&gt;Monopile&lt;/font&gt;&lt;/b&gt;" style="text;html=1;strokeColor=none;fillColor=none;align=center;verticalAlign=middle;whiteSpace=wrap;rounded=0;" vertex="1" parent="1">
          <mxGeometry x="621" y="310" width="90" height="20" as="geometry" />
        </mxCell>
        <mxCell id="gQVnEwLQoKDcN8zsAV5Y-35" value="" style="shape=image;html=1;verticalAlign=top;verticalLabelPosition=bottom;labelBackgroundColor=#ffffff;imageAspect=0;aspect=fixed;image=https://cdn1.iconfinder.com/data/icons/nuvola2/128x128/apps/kcmpci.png;rotation=-90;" vertex="1" parent="1">
          <mxGeometry x="451.48" y="300" width="62" height="62" as="geometry" />
        </mxCell>
        <mxCell id="gQVnEwLQoKDcN8zsAV5Y-36" value="" style="endArrow=none;dashed=1;html=1;dashPattern=1 3;strokeWidth=2;exitX=1;exitY=0.5;exitDx=0;exitDy=0;entryX=1;entryY=0.5;entryDx=0;entryDy=0;" edge="1" parent="1" target="gQVnEwLQoKDcN8zsAV5Y-22">
          <mxGeometry width="50" height="50" relative="1" as="geometry">
            <mxPoint x="482" y="330" as="sourcePoint" />
            <mxPoint x="394" y="330.03999999999996" as="targetPoint" />
          </mxGeometry>
        </mxCell>
        <mxCell id="gQVnEwLQoKDcN8zsAV5Y-37" value="&lt;b&gt;&lt;font style=&quot;font-size: 13px&quot;&gt;TI mmWave RADAR&lt;/font&gt;&lt;/b&gt;" style="text;html=1;strokeColor=none;fillColor=none;align=center;verticalAlign=middle;whiteSpace=wrap;rounded=0;" vertex="1" parent="1">
          <mxGeometry x="397.98" y="278" width="169" height="20" as="geometry" />
        </mxCell>
        <mxCell id="gQVnEwLQoKDcN8zsAV5Y-38" value="" style="points=[];aspect=fixed;html=1;align=center;shadow=0;dashed=0;image;image=img/lib/allied_telesis/security/Surveillance_Camera_Ceiling.svg;rotation=90;" vertex="1" parent="1">
          <mxGeometry x="743" y="303" width="37.2" height="35.4" as="geometry" />
        </mxCell>
        <mxCell id="gQVnEwLQoKDcN8zsAV5Y-39" value="&lt;font style=&quot;font-size: 13px&quot;&gt;&lt;b&gt;LiDAR Camera L515&lt;/b&gt;&lt;/font&gt;" style="text;html=1;strokeColor=none;fillColor=none;align=center;verticalAlign=middle;whiteSpace=wrap;rounded=0;" vertex="1" parent="1">
          <mxGeometry x="670" y="350" width="170" height="20" as="geometry" />
        </mxCell>
        <mxCell id="gQVnEwLQoKDcN8zsAV5Y-40" value="" style="endArrow=none;dashed=1;html=1;dashPattern=1 3;strokeWidth=2;entryX=1;entryY=0.5;entryDx=0;entryDy=0;" edge="1" parent="1">
          <mxGeometry width="50" height="50" relative="1" as="geometry">
            <mxPoint x="753" y="320" as="sourcePoint" />
            <mxPoint x="665" y="200" as="targetPoint" />
          </mxGeometry>
        </mxCell>
        <mxCell id="gQVnEwLQoKDcN8zsAV5Y-45" value="&lt;b&gt;&lt;font style=&quot;font-size: 19px&quot;&gt;Only RADAR&lt;/font&gt;&lt;/b&gt;" style="text;html=1;strokeColor=none;fillColor=none;align=center;verticalAlign=middle;whiteSpace=wrap;rounded=0;" vertex="1" parent="1">
          <mxGeometry x="40" y="380" width="190" height="20" as="geometry" />
        </mxCell>
        <mxCell id="gQVnEwLQoKDcN8zsAV5Y-46" value="&lt;b&gt;&lt;font style=&quot;font-size: 19px&quot;&gt;2 RADAR&lt;/font&gt;&lt;/b&gt;&lt;span style=&quot;color: rgba(0 , 0 , 0 , 0) ; font-family: monospace ; font-size: 0px&quot;&gt;%3CmxGraphModel%3E%3Croot%3E%3CmxCell%20id%3D%220%22%2F%3E%3CmxCell%20id%3D%221%22%20parent%3D%220%22%2F%3E%3CmxCell%20id%3D%222%22%20value%3D%22%26lt%3Bb%26gt%3B%26lt%3Bfont%20style%3D%26quot%3Bfont-size%3A%2019px%26quot%3B%26gt%3BOnly%20RADAR%26lt%3B%2Ffont%26gt%3B%26lt%3B%2Fb%26gt%3B%22%20style%3D%22text%3Bhtml%3D1%3BstrokeColor%3Dnone%3BfillColor%3Dnone%3Balign%3Dcenter%3BverticalAlign%3Dmiddle%3BwhiteSpace%3Dwrap%3Brounded%3D0%3B%22%20vertex%3D%221%22%20parent%3D%221%22%3E%3CmxGeometry%20x%3D%2240%22%20y%3D%22380%22%20width%3D%22190%22%20height%3D%2220%22%20as%3D%22geometry%22%2F%3E%3C%2FmxCell%3E%3C%2Froot%3E%3C%2FmxGraphModel%3E&lt;/span&gt;" style="text;html=1;strokeColor=none;fillColor=none;align=center;verticalAlign=middle;whiteSpace=wrap;rounded=0;" vertex="1" parent="1">
          <mxGeometry x="319" y="380" width="190" height="20" as="geometry" />
        </mxCell>
        <mxCell id="gQVnEwLQoKDcN8zsAV5Y-47" value="&lt;b&gt;&lt;font style=&quot;font-size: 19px&quot;&gt;RADAR + LiDAR&lt;/font&gt;&lt;/b&gt;" style="text;html=1;strokeColor=none;fillColor=none;align=center;verticalAlign=middle;whiteSpace=wrap;rounded=0;" vertex="1" parent="1">
          <mxGeometry x="589" y="380" width="190" height="20" as="geometry" />
        </mxCell>
      </root>
    </mxGraphModel>
  </diagram>
</mxfile>
